<?xml version="1.0" standalone="no"?>
<!DOCTYPE svg PUBLIC "-//W3C//DTD SVG 20010904//EN"
 "http://www.w3.org/TR/2001/REC-SVG-20010904/DTD/svg10.dtd">
<svg version="1.0" xmlns="http://www.w3.org/2000/svg"
 width="2560.000000pt" height="1600.000000pt" viewBox="0 0 2560.000000 1600.000000"
 preserveAspectRatio="xMidYMid meet">
<metadata>
Created by potrace 1.15, written by Peter Selinger 2001-2017
</metadata>
<g transform="translate(0.000000,1600.000000) scale(0.100000,-0.100000)"
fill="#000000" stroke="none">
<path d="M560 15390 l0 -130 25 0 c25 0 25 1 26 88 l0 87 33 -85 c45 -115 61
-118 100 -13 16 43 32 81 35 85 3 4 5 -31 3 -77 l-3 -85 25 0 26 0 0 131 0
130 -31 -3 c-30 -3 -34 -8 -63 -85 -17 -45 -34 -84 -37 -88 -4 -3 -21 35 -39
85 -32 89 -33 90 -66 90 l-34 0 0 -130z"/>
<path d="M1987 15509 c-10 -6 -22 -22 -27 -35 -15 -40 6 -70 67 -95 59 -24 77
-45 62 -72 -18 -31 -109 -16 -109 18 0 8 -7 15 -15 15 -24 0 -17 -37 11 -59
53 -42 154 -13 154 44 0 34 -29 62 -85 82 -30 11 -51 25 -53 36 -10 48 65 66
94 22 9 -14 23 -25 30 -25 22 0 16 29 -11 55 -26 27 -84 34 -118 14z"/>
<path d="M920 15453 c-20 -8 -50 -34 -50 -45 0 -12 37 -10 59 4 15 9 23 9 35
-1 25 -21 19 -31 -18 -31 -44 0 -78 -28 -78 -65 0 -40 24 -54 97 -53 l63 0 -5
82 c-3 44 -11 87 -17 93 -14 15 -65 25 -86 16z"/>
<path d="M1147 15453 c-4 -3 -23 -6 -42 -5 l-35 1 0 -129 0 -130 25 0 c22 0
25 4 25 38 l0 38 39 -4 c32 -3 42 1 60 23 38 49 24 141 -26 164 -28 13 -37 14
-46 4z"/>
<path d="M2178 15428 c-20 -20 -21 -23 -5 -26 9 -2 24 4 33 12 21 22 51 20 64
-3 14 -28 14 -28 -32 -35 -50 -8 -78 -30 -78 -61 0 -44 56 -69 101 -45 13 7
19 7 19 0 0 -5 8 -10 18 -10 15 0 17 9 14 77 -4 93 -17 113 -74 113 -26 0 -45
-7 -60 -22z"/>
<path d="M2491 15424 c-50 -64 -12 -164 62 -164 42 0 77 23 61 40 -8 8 -14 9
-18 1 -11 -16 -62 -13 -80 5 -33 32 -20 44 50 44 l66 0 -7 33 c-11 48 -32 67
-76 67 -29 0 -42 -6 -58 -26z"/>
<path d="M3071 15424 c-50 -64 -12 -164 62 -164 42 0 77 23 61 40 -8 8 -14 9
-18 1 -11 -16 -62 -13 -80 5 -33 32 -20 44 50 44 l66 0 -7 33 c-11 48 -32 67
-76 67 -29 0 -42 -6 -58 -26z"/>
<path d="M14350 9646 c-6 -8 -27 -20 -46 -26 -23 -8 -39 -22 -50 -46 -22 -45
-7 -64 50 -63 22 0 55 -2 73 -6 26 -6 34 -3 46 16 9 13 16 42 17 64 3 75 3 75
-39 75 -21 0 -44 -6 -51 -14z"/>
<path d="M16696 9051 c-4 -5 -3 -17 0 -26 4 -9 -2 -41 -12 -70 l-18 -54 31
-43 c26 -36 37 -43 63 -41 68 3 77 44 30 139 -43 85 -78 121 -94 95z"/>
<path d="M15359 8454 c-27 -33 -8 -195 29 -235 32 -37 46 -36 83 3 34 38 37
68 9 93 -24 21 -26 48 -5 65 16 13 20 48 7 66 -4 6 -30 14 -59 17 -39 4 -55 2
-64 -9z"/>
<path d="M15565 8130 c-3 -5 -19 -10 -34 -10 -34 0 -51 -17 -51 -50 0 -35 17
-50 57 -50 31 0 33 -2 33 -34 0 -20 6 -36 14 -39 19 -7 76 54 76 81 0 13 7 25
15 28 17 7 20 37 5 65 -8 15 -21 19 -60 19 -27 0 -52 -4 -55 -10z"/>
<path d="M17473 7828 c-5 -7 -15 -25 -23 -40 -8 -18 -21 -28 -35 -28 -12 0
-37 -10 -56 -23 -44 -29 -51 -82 -19 -127 27 -38 46 -38 110 0 28 17 55 30 60
30 6 0 10 4 10 9 0 5 14 14 31 21 38 16 63 53 55 82 -10 38 -64 88 -95 88 -16
0 -33 -6 -38 -12z"/>
<path d="M24960 1810 l0 -70 -70 0 -70 0 0 -40 0 -40 70 0 70 0 0 -70 0 -70
40 0 40 0 0 70 0 70 70 0 70 0 0 40 0 40 -70 0 -70 0 0 70 0 70 -40 0 -40 0 0
-70z"/>
<path d="M24820 880 l0 -40 180 0 180 0 0 40 0 40 -180 0 -180 0 0 -40z"/>
<path d="M505 328 c-32 -18 -44 -40 -45 -79 0 -81 100 -122 155 -63 71 77 -20
193 -110 142z"/>
<path d="M1215 315 c-35 -34 -35 -96 0 -130 31 -32 93 -34 119 -6 21 23 6 37
-23 21 -28 -14 -56 -12 -71 5 -11 13 -4 19 49 42 33 14 61 32 61 38 0 6 -10
21 -23 33 -32 30 -81 29 -112 -3z"/>
<path d="M20896 198 c-23 -32 -20 -71 7 -96 30 -29 62 -28 92 3 30 30 31 54 4
89 -27 34 -81 36 -103 4z"/>
</g>
</svg>
