<?xml version="1.0" standalone="no"?>
<!DOCTYPE svg PUBLIC "-//W3C//DTD SVG 20010904//EN"
 "http://www.w3.org/TR/2001/REC-SVG-20010904/DTD/svg10.dtd">
<svg version="1.0" xmlns="http://www.w3.org/2000/svg"
 width="2560.000000pt" height="1600.000000pt" viewBox="0 0 2560.000000 1600.000000"
 preserveAspectRatio="xMidYMid meet">
<metadata>
Created by potrace 1.15, written by Peter Selinger 2001-2017
</metadata>
<g transform="translate(0.000000,1600.000000) scale(0.100000,-0.100000)"
fill="#000000" stroke="none">
<path d="M560 15390 l0 -130 25 0 c25 0 25 1 26 88 l0 87 33 -85 c45 -115 61
-118 100 -13 16 43 32 81 35 85 3 4 5 -31 3 -77 l-3 -85 25 0 26 0 0 131 0
130 -31 -3 c-30 -3 -34 -8 -63 -85 -17 -45 -34 -84 -37 -88 -4 -3 -21 35 -39
85 -32 89 -33 90 -66 90 l-34 0 0 -130z"/>
<path d="M1987 15509 c-10 -6 -22 -22 -27 -35 -15 -40 6 -70 67 -95 59 -24 77
-45 62 -72 -18 -31 -109 -16 -109 18 0 8 -7 15 -15 15 -24 0 -17 -37 11 -59
53 -42 154 -13 154 44 0 34 -29 62 -85 82 -30 11 -51 25 -53 36 -10 48 65 66
94 22 9 -14 23 -25 30 -25 22 0 16 29 -11 55 -26 27 -84 34 -118 14z"/>
<path d="M920 15453 c-20 -8 -50 -34 -50 -45 0 -12 37 -10 59 4 15 9 23 9 35
-1 25 -21 19 -31 -18 -31 -44 0 -78 -28 -78 -65 0 -40 24 -54 97 -53 l63 0 -5
82 c-3 44 -11 87 -17 93 -14 15 -65 25 -86 16z"/>
<path d="M1147 15453 c-4 -3 -23 -6 -42 -5 l-35 1 0 -129 0 -130 25 0 c22 0
25 4 25 38 l0 38 39 -4 c32 -3 42 1 60 23 38 49 24 141 -26 164 -28 13 -37 14
-46 4z"/>
<path d="M2178 15428 c-20 -20 -21 -23 -5 -26 9 -2 24 4 33 12 21 22 51 20 64
-3 14 -28 14 -28 -32 -35 -50 -8 -78 -30 -78 -61 0 -44 56 -69 101 -45 13 7
19 7 19 0 0 -5 8 -10 18 -10 15 0 17 9 14 77 -4 93 -17 113 -74 113 -26 0 -45
-7 -60 -22z"/>
<path d="M2491 15424 c-50 -64 -12 -164 62 -164 42 0 77 23 61 40 -8 8 -14 9
-18 1 -11 -16 -62 -13 -80 5 -33 32 -20 44 50 44 l66 0 -7 33 c-11 48 -32 67
-76 67 -29 0 -42 -6 -58 -26z"/>
<path d="M3071 15424 c-50 -64 -12 -164 62 -164 42 0 77 23 61 40 -8 8 -14 9
-18 1 -11 -16 -62 -13 -80 5 -33 32 -20 44 50 44 l66 0 -7 33 c-11 48 -32 67
-76 67 -29 0 -42 -6 -58 -26z"/>
<path d="M12003 8875 c-25 -25 -44 -35 -67 -35 -57 0 -70 -41 -20 -61 18 -6
24 -16 24 -37 0 -59 72 -82 124 -41 23 18 27 28 25 65 -2 24 0 46 4 50 14 15
6 51 -16 72 -13 12 -27 22 -31 22 -4 0 -24 -16 -43 -35z"/>
<path d="M13508 8678 c-7 -7 -20 -14 -28 -16 -18 -4 -60 -47 -60 -62 0 -6 -4
-9 -9 -6 -11 7 -19 -13 -14 -35 6 -21 48 -40 69 -32 36 14 86 70 94 108 5 21
7 43 4 47 -8 12 -41 10 -56 -4z"/>
<path d="M16785 8439 c-40 -35 -44 -60 -15 -106 16 -27 26 -33 53 -33 47 0 57
15 57 87 0 59 -2 64 -26 73 -33 13 -28 14 -69 -21z"/>
<path d="M14619 7467 c-8 -7 -24 -24 -33 -39 -41 -63 11 -173 78 -166 38 4 45
32 21 78 -16 31 -16 33 4 47 27 19 26 32 -4 66 -28 30 -42 33 -66 14z"/>
<path d="M24960 1810 l0 -70 -70 0 -70 0 0 -40 0 -40 70 0 70 0 0 -70 0 -70
40 0 40 0 0 70 0 70 70 0 70 0 0 40 0 40 -70 0 -70 0 0 70 0 70 -40 0 -40 0 0
-70z"/>
<path d="M24820 880 l0 -40 180 0 180 0 0 40 0 40 -180 0 -180 0 0 -40z"/>
<path d="M486 314 c-19 -19 -26 -37 -26 -64 0 -82 95 -122 154 -64 57 58 17
154 -64 154 -27 0 -45 -7 -64 -26z"/>
<path d="M1215 315 c-35 -34 -35 -96 0 -130 31 -32 93 -34 119 -6 21 23 6 37
-23 21 -28 -14 -56 -12 -71 5 -11 13 -4 19 49 42 33 14 61 32 61 38 0 6 -10
21 -23 33 -32 30 -81 29 -112 -3z"/>
<path d="M20896 198 c-23 -32 -20 -71 7 -96 30 -29 62 -28 92 3 30 30 31 54 4
89 -27 34 -81 36 -103 4z"/>
</g>
</svg>
