<?xml version="1.0" standalone="no"?>
<!DOCTYPE svg PUBLIC "-//W3C//DTD SVG 20010904//EN"
 "http://www.w3.org/TR/2001/REC-SVG-20010904/DTD/svg10.dtd">
<svg version="1.0" xmlns="http://www.w3.org/2000/svg"
 width="2560.000000pt" height="1600.000000pt" viewBox="0 0 2560.000000 1600.000000"
 preserveAspectRatio="xMidYMid meet">
<metadata>
Created by potrace 1.15, written by Peter Selinger 2001-2017
</metadata>
<g transform="translate(0.000000,1600.000000) scale(0.100000,-0.100000)"
fill="#000000" stroke="none">
<path d="M23130 15843 c-34 -15 -104 -14 -141 1 -11 5 -19 -1 -27 -19 l-12
-25 220 0 220 0 -12 25 c-8 18 -16 24 -27 19 -34 -16 -102 -16 -141 0 -22 9
-41 16 -43 15 -1 0 -18 -7 -37 -16z"/>
<path d="M22940 15740 c0 -45 17 -85 49 -114 16 -15 21 -16 21 -4 0 8 14 27
30 43 30 28 39 55 20 55 -5 0 -10 -4 -10 -10 0 -5 -9 -10 -20 -10 -23 0 -24 4
-10 31 15 27 66 26 81 -2 9 -18 7 -27 -10 -50 -26 -35 -26 -39 -1 -39 11 0 20
-7 20 -15 0 -11 -12 -15 -47 -15 -41 0 -45 -2 -33 -14 8 -8 43 -24 78 -36 58
-19 66 -19 112 -6 116 34 180 101 180 185 l0 41 -230 0 -230 0 0 -40z"/>
<path d="M560 15390 l0 -130 25 0 c25 0 25 1 26 88 l0 87 33 -85 c45 -115 61
-118 100 -13 16 43 32 81 35 85 3 4 5 -31 3 -77 l-3 -85 25 0 26 0 0 131 0
130 -31 -3 c-30 -3 -34 -8 -63 -85 -17 -45 -34 -84 -37 -88 -4 -3 -21 35 -39
85 -32 89 -33 90 -66 90 l-34 0 0 -130z"/>
<path d="M1987 15509 c-10 -6 -22 -22 -27 -35 -15 -40 6 -70 67 -95 59 -24 77
-45 62 -72 -18 -31 -109 -16 -109 18 0 8 -7 15 -15 15 -24 0 -17 -37 11 -59
53 -42 154 -13 154 44 0 34 -29 62 -85 82 -30 11 -51 25 -53 36 -10 48 65 66
94 22 9 -14 23 -25 30 -25 22 0 16 29 -11 55 -26 27 -84 34 -118 14z"/>
<path d="M920 15453 c-20 -8 -50 -34 -50 -45 0 -12 37 -10 59 4 15 9 23 9 35
-1 25 -21 19 -31 -18 -31 -44 0 -78 -28 -78 -65 0 -40 24 -54 97 -53 l63 0 -5
82 c-3 44 -11 87 -17 93 -14 15 -65 25 -86 16z"/>
<path d="M1147 15453 c-4 -3 -23 -6 -42 -5 l-35 1 0 -129 0 -130 25 0 c22 0
25 4 25 38 l0 38 39 -4 c32 -3 42 1 60 23 38 49 24 141 -26 164 -28 13 -37 14
-46 4z"/>
<path d="M2178 15428 c-20 -20 -21 -23 -5 -26 9 -2 24 4 33 12 21 22 51 20 64
-3 14 -28 14 -28 -32 -35 -50 -8 -78 -30 -78 -61 0 -44 56 -69 101 -45 13 7
19 7 19 0 0 -5 8 -10 18 -10 15 0 17 9 14 77 -4 93 -17 113 -74 113 -26 0 -45
-7 -60 -22z"/>
<path d="M2491 15424 c-50 -64 -12 -164 62 -164 42 0 77 23 61 40 -8 8 -14 9
-18 1 -11 -16 -62 -13 -80 5 -33 32 -20 44 50 44 l66 0 -7 33 c-11 48 -32 67
-76 67 -29 0 -42 -6 -58 -26z"/>
<path d="M3071 15424 c-50 -64 -12 -164 62 -164 42 0 77 23 61 40 -8 8 -14 9
-18 1 -11 -16 -62 -13 -80 5 -33 32 -20 44 50 44 l66 0 -7 33 c-11 48 -32 67
-76 67 -29 0 -42 -6 -58 -26z"/>
<path d="M19006 15408 c-9 -13 -16 -43 -16 -70 0 -57 25 -88 69 -88 16 0 34
-7 41 -15 7 -8 17 -12 23 -8 6 4 3 11 -7 19 -17 12 -17 14 0 38 21 34 14 114
-12 133 -29 21 -81 16 -98 -9z"/>
<path d="M18900 15080 l0 -90 36 0 c51 0 74 15 74 50 0 16 -4 31 -9 34 -5 4
-5 18 2 35 15 42 -3 61 -59 61 l-44 0 0 -90z"/>
<path d="M2740 14864 c-34 -15 -90 -15 -136 0 -16 6 -23 2 -32 -18 l-12 -26
220 0 c121 0 220 2 220 5 0 2 -5 15 -11 28 -10 23 -13 24 -38 11 -34 -18 -78
-18 -131 1 -23 8 -43 15 -44 15 0 -1 -17 -8 -36 -16z"/>
<path d="M2550 14760 c0 -80 58 -142 168 -179 58 -20 66 -20 112 -7 116 34
180 101 180 185 l0 41 -230 0 -230 0 0 -40z"/>
<path d="M23885 14623 c-38 -14 -111 -13 -146 1 -11 5 -19 -1 -27 -19 l-12
-25 220 0 c121 0 220 3 220 8 0 4 -7 15 -14 25 -12 15 -18 16 -35 8 -27 -15
-92 -14 -132 3 -29 12 -40 12 -74 -1z"/>
<path d="M23690 14520 c0 -80 58 -142 168 -179 58 -20 66 -20 112 -7 116 34
180 101 180 185 l0 41 -230 0 -230 0 0 -40z"/>
<path d="M21316 14478 c-9 -12 -16 -42 -16 -66 0 -50 33 -92 73 -92 14 0 30
-7 37 -15 7 -8 17 -12 22 -9 5 3 2 11 -7 18 -15 10 -15 14 -1 41 25 48 17 114
-18 137 -24 16 -75 8 -90 -14z"/>
<path d="M8230 14317 l0 -93 44 -2 c50 -2 67 12 68 55 2 64 -29 96 -72 73 -18
-10 -20 -8 -20 25 0 19 -4 35 -10 35 -6 0 -10 -38 -10 -93z"/>
<path d="M5351 14232 c-52 -26 -76 -65 -76 -122 0 -94 64 -143 182 -138 64 3
76 7 102 32 77 74 58 193 -35 232 -46 19 -132 18 -173 -4z m205 -36 c30 -30
34 -40 34 -86 0 -46 -4 -56 -34 -86 -33 -33 -36 -34 -116 -34 -80 0 -83 1
-116 34 -30 30 -34 40 -34 86 0 46 4 56 34 86 33 33 36 34 116 34 80 0 83 -1
116 -34z"/>
<path d="M15615 13873 c-38 -14 -97 -13 -141 1 -16 6 -23 2 -32 -18 l-12 -26
220 0 c121 0 220 2 220 5 0 2 -5 15 -11 29 -11 23 -14 24 -33 11 -26 -19 -93
-19 -137 -1 -29 12 -40 12 -74 -1z"/>
<path d="M4722 13777 c-28 -30 -29 -34 -15 -54 13 -19 13 -25 -1 -52 -34 -64
-10 -142 51 -168 41 -17 194 -20 233 -5 66 26 98 109 65 171 -15 29 -15 35 -1
55 14 22 13 25 -17 54 -29 28 -34 29 -51 16 -26 -18 -56 -18 -84 2 -20 14 -24
14 -44 0 -28 -20 -57 -20 -84 -1 -19 13 -23 11 -52 -18z m64 -7 c19 -8 37 -7
60 0 25 9 43 9 67 1 24 -8 42 -8 65 0 44 15 61 0 61 -54 0 -23 3 -68 7 -99 5
-53 4 -59 -20 -81 -20 -19 -41 -26 -86 -29 -108 -8 -177 2 -206 29 -24 22 -25
28 -20 81 4 31 7 75 9 97 3 64 14 73 63 55z"/>
<path d="M15420 13770 c0 -45 17 -85 49 -114 16 -15 21 -16 21 -4 0 8 14 27
30 43 30 28 39 55 20 55 -5 0 -10 -4 -10 -10 0 -5 -9 -10 -20 -10 -23 0 -24 4
-10 31 15 27 66 26 81 -2 9 -18 7 -27 -10 -50 -26 -35 -26 -39 -1 -39 11 0 20
-7 20 -15 0 -11 -12 -15 -47 -15 -41 0 -45 -2 -33 -14 8 -8 43 -24 78 -36 58
-19 66 -19 112 -6 116 34 180 101 180 185 l0 41 -230 0 -230 0 0 -40z"/>
<path d="M660 13680 c0 -113 1 -120 20 -120 15 0 20 7 20 29 0 44 16 46 42 7
13 -20 31 -36 41 -36 23 0 22 4 -12 54 l-30 43 30 36 c27 33 28 37 11 37 -11
0 -34 -16 -51 -35 l-31 -36 0 71 c0 63 -2 70 -20 70 -19 0 -20 -7 -20 -120z"/>
<path d="M110 13728 c0 -2 11 -39 23 -83 28 -100 46 -108 71 -30 9 30 19 55
21 55 3 0 12 -25 21 -56 23 -79 42 -71 71 31 12 44 23 81 23 83 0 1 -8 2 -18
2 -14 0 -21 -14 -31 -62 l-14 -63 -20 63 c-12 34 -26 62 -33 62 -7 0 -20 -26
-29 -57 -18 -63 -30 -59 -41 15 -5 32 -11 42 -25 42 -11 0 -19 -1 -19 -2z"/>
<path d="M385 13710 c-23 -25 -12 -37 19 -21 30 16 60 11 64 -12 3 -14 -4 -17
-32 -17 -37 0 -76 -27 -76 -53 0 -24 26 -49 51 -48 13 0 40 1 59 1 l35 1 -3
72 c-2 52 -8 75 -20 85 -25 19 -76 15 -97 -8z"/>
<path d="M14840 13644 c-34 -15 -90 -15 -136 0 -16 6 -23 2 -32 -18 l-12 -26
220 0 c121 0 220 2 220 5 0 2 -5 15 -11 28 -10 23 -13 24 -38 11 -34 -18 -78
-18 -131 1 -23 8 -43 15 -44 15 0 -1 -17 -8 -36 -16z"/>
<path d="M2920 13601 c0 -78 53 -155 126 -186 43 -18 80 -6 137 45 39 33 57
79 57 143 l0 37 -160 0 -160 0 0 -39z"/>
<path d="M14650 13540 c0 -80 58 -142 168 -179 58 -20 66 -20 112 -7 116 34
180 101 180 185 l0 41 -230 0 -230 0 0 -40z"/>
<path d="M9581 13443 c-52 -27 -76 -66 -76 -123 0 -57 24 -96 76 -122 41 -22
127 -23 173 -4 93 39 112 158 35 232 -26 25 -38 29 -102 32 -55 2 -80 -1 -106
-15z m205 -37 c30 -30 34 -40 34 -86 0 -46 -4 -56 -34 -86 -33 -33 -36 -34
-116 -34 -80 0 -83 1 -116 34 -30 30 -34 40 -34 86 0 46 4 56 34 86 33 33 36
34 116 34 80 0 83 -1 116 -34z"/>
<path d="M17455 13393 c-38 -14 -97 -13 -141 1 -16 6 -23 2 -32 -18 l-12 -26
220 0 c121 0 220 2 220 5 0 2 -5 15 -11 29 -11 23 -14 24 -33 11 -26 -19 -93
-19 -137 -1 -29 12 -40 12 -74 -1z"/>
<path d="M17260 13290 c0 -80 58 -142 168 -179 58 -20 66 -20 112 -7 116 34
180 101 180 185 l0 41 -230 0 -230 0 0 -40z"/>
<path d="M14420 13214 c-34 -15 -90 -15 -136 0 -16 6 -23 2 -32 -18 l-12 -26
220 0 c121 0 220 2 220 5 0 2 -5 15 -11 28 -10 23 -13 24 -38 11 -34 -18 -78
-18 -131 1 -23 8 -43 15 -44 15 0 -1 -17 -8 -36 -16z"/>
<path d="M21684 13190 c-35 -14 -54 -50 -54 -103 0 -58 32 -97 78 -97 16 0 37
-9 47 -20 22 -24 46 -11 26 14 -10 12 -9 21 3 45 33 63 11 140 -45 160 -18 6
-32 11 -33 10 -1 0 -11 -4 -22 -9z"/>
<path d="M21860 13116 c0 -93 21 -126 80 -126 63 0 80 27 80 122 0 71 -2 78
-20 78 -18 0 -20 -7 -20 -79 0 -91 -13 -112 -55 -93 -24 11 -25 16 -25 92 0
73 -2 80 -20 80 -18 0 -20 -7 -20 -74z"/>
<path d="M22280 13090 l0 -100 70 0 c56 0 70 3 70 15 0 11 -12 15 -50 15 -49
0 -50 1 -50 30 0 28 2 30 40 30 29 0 40 4 40 15 0 11 -11 15 -40 15 -38 0 -40
2 -40 30 0 29 1 30 50 30 28 0 50 5 50 10 0 6 -30 10 -70 10 l-70 0 0 -100z"/>
<path d="M22480 13090 c0 -81 3 -100 15 -100 11 0 15 17 17 73 l3 72 44 -72
c29 -49 49 -73 62 -73 17 0 19 9 19 100 0 93 -1 100 -20 100 -17 0 -19 -8 -22
-67 l-3 -68 -40 68 c-25 43 -46 67 -57 67 -16 0 -18 -11 -18 -100z"/>
<path d="M14230 13110 c0 -45 17 -85 49 -114 16 -15 21 -16 21 -4 0 8 14 27
30 43 30 28 39 55 20 55 -5 0 -10 -4 -10 -10 0 -5 -9 -10 -20 -10 -23 0 -24 4
-10 31 15 27 66 26 81 -2 9 -18 7 -27 -10 -50 -26 -35 -26 -39 -1 -39 11 0 20
-7 20 -15 0 -11 -12 -15 -47 -15 -41 0 -45 -2 -33 -14 8 -8 43 -24 78 -36 58
-19 66 -19 112 -6 116 34 180 101 180 185 l0 41 -230 0 -230 0 0 -40z"/>
<path d="M7040 13061 c0 -77 44 -147 115 -180 41 -19 48 -20 78 -7 83 34 127
100 127 189 l0 37 -160 0 -160 0 0 -39z"/>
<path d="M1892 13017 c-27 -29 -29 -34 -16 -53 12 -17 12 -26 -2 -61 -36 -90
11 -160 115 -172 97 -12 177 2 212 35 37 36 46 83 25 137 -14 36 -14 43 -2 63
14 20 12 24 -15 50 -25 24 -32 27 -49 16 -23 -14 -64 -16 -88 -3 -11 6 -33 5
-59 -2 -34 -9 -45 -8 -66 6 -23 15 -25 15 -55 -16z m64 -7 c19 -8 37 -7 60 0
25 9 43 9 67 1 24 -8 42 -8 65 0 44 15 61 0 61 -54 0 -23 3 -68 7 -99 5 -53 4
-59 -20 -81 -20 -19 -41 -26 -86 -29 -108 -8 -177 2 -206 29 -24 22 -25 28
-20 81 4 31 7 75 9 97 3 64 14 73 63 55z"/>
<path d="M8083 12395 c-13 -9 -27 -34 -33 -56 -30 -111 43 -196 129 -152 41
22 61 63 31 63 -11 0 -20 -4 -20 -10 0 -17 -48 -42 -68 -36 -40 13 -57 111
-26 154 8 12 26 22 39 22 24 0 55 -23 55 -41 0 -5 7 -9 15 -9 24 0 17 37 -11
59 -31 25 -81 27 -111 6z"/>
<path d="M24980 12280 l0 -90 29 0 c55 0 81 16 81 50 0 18 -6 33 -15 37 -14 5
-14 8 1 24 14 16 15 24 6 44 -10 21 -18 25 -57 25 l-45 0 0 -90z"/>
<path d="M7185 12325 c-17 -16 -25 -35 -25 -59 0 -48 8 -65 42 -82 24 -12 36
-13 64 -4 32 11 44 40 13 31 -35 -11 -62 -5 -76 17 l-15 22 62 0 63 0 -7 32
c-14 68 -75 90 -121 43z"/>
<path d="M7645 12325 c-42 -41 -28 -125 25 -143 33 -12 80 -4 87 15 8 21 -3
26 -27 13 -27 -14 -70 1 -70 25 0 12 12 15 55 15 51 0 55 2 55 24 0 13 -9 35
-21 50 -27 34 -71 35 -104 1z"/>
<path d="M23151 12132 c-52 -26 -76 -65 -76 -122 0 -87 63 -140 165 -140 102
0 165 53 165 140 0 87 -63 140 -165 140 -33 0 -69 -7 -89 -18z m205 -36 c30
-30 34 -40 34 -86 0 -46 -4 -56 -34 -86 -33 -33 -36 -34 -116 -34 -80 0 -83 1
-116 34 -30 30 -34 40 -34 86 0 46 4 56 34 86 33 33 36 34 116 34 80 0 83 -1
116 -34z"/>
<path d="M10690 11920 c0 -143 1 -150 20 -150 16 0 20 7 20 34 0 18 6 39 14
45 12 10 20 3 46 -33 23 -34 38 -46 56 -46 25 0 25 0 -15 58 -23 32 -41 62
-41 67 0 5 17 26 37 47 l37 38 -28 0 c-21 0 -39 -12 -67 -42 l-38 -43 -1 88
c0 80 -2 87 -20 87 -19 0 -20 -7 -20 -150z"/>
<path d="M9040 11911 l0 -141 25 0 c24 0 24 1 27 98 l3 97 60 -97 c47 -77 65
-98 83 -98 22 0 22 1 22 140 0 133 -1 140 -20 140 -19 0 -20 -7 -20 -97 0
-112 1 -113 -75 9 -41 66 -57 84 -78 86 l-27 3 0 -140z"/>
<path d="M9365 11955 c-21 -20 -25 -34 -25 -80 0 -73 28 -105 93 -105 50 0 89
22 71 40 -9 9 -17 9 -32 1 -30 -16 -49 -14 -72 9 -33 33 -24 40 50 40 61 0 70
2 70 19 0 32 -22 81 -40 91 -35 19 -89 12 -115 -15z"/>
<path d="M9589 11878 c22 -83 32 -104 47 -106 16 -2 22 6 31 40 6 24 17 57 23
73 11 28 13 28 20 10 6 -14 9 -5 9 33 1 45 -2 52 -18 52 -15 0 -23 -14 -36
-65 -10 -36 -21 -65 -25 -65 -4 0 -14 29 -21 65 -11 57 -16 65 -35 65 l-22 0
27 -102z"/>
<path d="M10313 11965 c-12 -8 -27 -31 -33 -51 -15 -46 0 -106 33 -129 28 -19
86 -19 114 0 49 34 49 146 0 180 -27 19 -86 19 -114 0z"/>
<path d="M20835 11543 c-38 -14 -112 -13 -146 1 -11 5 -19 -1 -27 -19 l-12
-25 220 0 220 0 -12 25 c-8 18 -16 24 -27 19 -33 -15 -92 -15 -133 -2 -37 13
-48 13 -83 1z"/>
<path d="M20640 11440 c0 -80 58 -142 168 -179 58 -20 66 -20 112 -7 116 34
180 101 180 185 l0 41 -230 0 -230 0 0 -40z"/>
<path d="M4271 11293 c-52 -27 -76 -66 -76 -123 0 -57 24 -96 76 -122 26 -14
59 -18 134 -18 125 0 161 16 189 82 24 59 16 108 -29 156 l-33 37 -114 3 c-93
2 -119 0 -147 -15z m285 -37 c30 -30 34 -40 34 -86 0 -46 -4 -56 -34 -86 l-34
-34 -122 0 -122 0 -34 34 c-30 30 -34 40 -34 86 0 46 4 56 34 86 l34 34 122 0
122 0 34 -34z"/>
<path d="M1880 11161 c0 -78 53 -155 126 -186 43 -18 80 -6 137 45 39 33 57
79 57 143 l0 37 -160 0 -160 0 0 -39z"/>
<path d="M9660 10234 c-34 -15 -90 -15 -136 0 -16 6 -23 2 -32 -18 l-12 -26
220 0 c121 0 220 2 220 5 0 2 -5 15 -11 28 -10 23 -13 24 -38 11 -34 -18 -78
-18 -131 1 -23 8 -43 15 -44 15 0 -1 -17 -8 -36 -16z"/>
<path d="M9470 10130 c0 -80 58 -142 168 -179 58 -20 66 -20 112 -7 116 34
180 101 180 185 l0 41 -230 0 -230 0 0 -40z"/>
<path d="M13193 9350 c-26 -10 -53 -58 -53 -93 0 -38 20 -86 40 -97 10 -6 34
-10 53 -10 48 0 78 35 80 92 2 57 -17 94 -56 108 -35 12 -35 12 -64 0z"/>
<path d="M13423 9350 c-26 -10 -53 -58 -53 -93 0 -38 20 -86 40 -97 10 -6 34
-10 53 -10 48 0 78 35 80 92 2 57 -17 94 -56 108 -35 12 -35 12 -64 0z"/>
<path d="M13610 9250 c0 -93 1 -100 20 -100 16 0 20 7 20 34 0 45 19 57 39 26
32 -48 47 -62 64 -59 15 3 12 12 -19 57 l-36 54 31 38 c36 45 37 50 12 50 -12
0 -33 -19 -53 -46 l-33 -47 -3 47 c-3 38 -7 46 -23 46 -18 0 -19 -8 -19 -100z"/>
<path d="M12710 9237 l0 -87 56 0 c70 0 94 12 94 49 0 39 -32 66 -76 63 -23
-2 -34 2 -34 11 0 8 -9 22 -20 32 -20 18 -20 17 -20 -68z"/>
<path d="M3150 8520 l0 -90 45 0 c32 0 51 6 65 20 24 24 24 30 6 55 -10 14
-10 25 -3 46 16 41 -4 59 -64 59 l-49 0 0 -90z"/>
<path d="M17421 8342 c-52 -26 -76 -65 -76 -122 0 -87 63 -140 165 -140 102 0
165 53 165 140 0 87 -63 140 -165 140 -33 0 -69 -7 -89 -18z m205 -36 c30 -30
34 -40 34 -86 0 -46 -4 -56 -34 -86 -33 -33 -36 -34 -116 -34 -80 0 -83 1
-116 34 -30 30 -34 40 -34 86 0 46 4 56 34 86 33 33 36 34 116 34 80 0 83 -1
116 -34z"/>
<path d="M11261 7702 c-52 -26 -76 -65 -76 -122 0 -87 63 -140 165 -140 102 0
165 53 165 140 0 87 -63 140 -165 140 -33 0 -69 -7 -89 -18z m205 -36 c30 -30
34 -40 34 -86 0 -46 -4 -56 -34 -86 -33 -33 -36 -34 -116 -34 -80 0 -83 1
-116 34 -30 30 -34 40 -34 86 0 46 4 56 34 86 33 33 36 34 116 34 80 0 83 -1
116 -34z"/>
<path d="M13741 7462 c-52 -26 -76 -65 -76 -122 0 -87 63 -140 165 -140 102 0
165 53 165 140 0 87 -63 140 -165 140 -33 0 -69 -7 -89 -18z m205 -36 c30 -30
34 -40 34 -86 0 -46 -4 -56 -34 -86 -33 -33 -36 -34 -116 -34 -80 0 -83 1
-116 34 -30 30 -34 40 -34 86 0 46 4 56 34 86 33 33 36 34 116 34 80 0 83 -1
116 -34z"/>
<path d="M21630 7213 c-42 -14 -105 -14 -141 1 -10 5 -19 -1 -27 -19 l-12 -25
220 0 220 0 -12 25 c-8 18 -16 24 -27 19 -33 -15 -102 -16 -139 -1 -33 13 -42
13 -82 0z"/>
<path d="M21440 7110 c0 -80 58 -142 168 -179 58 -20 66 -20 112 -7 116 34
180 101 180 185 l0 41 -230 0 -230 0 0 -40z"/>
<path d="M3260 5760 l0 -90 45 0 c32 0 51 6 65 20 24 24 24 29 5 57 -10 14
-12 24 -5 28 14 9 13 48 -2 63 -7 7 -34 12 -60 12 l-48 0 0 -90z"/>
<path d="M3586 5791 c-21 -23 -21 -85 1 -106 11 -11 26 -15 45 -11 32 6 39
-13 13 -34 -12 -10 -21 -10 -41 -1 -20 9 -25 9 -22 -1 3 -7 20 -14 38 -16 48
-5 60 16 60 108 l0 76 -39 1 c-26 1 -44 -4 -55 -16z"/>
<path d="M8955 5003 c-38 -14 -111 -13 -146 1 -11 5 -19 -1 -27 -19 l-12 -25
220 0 220 0 -12 25 c-8 18 -16 24 -27 19 -33 -15 -102 -16 -139 -1 -32 13 -42
13 -77 0z"/>
<path d="M8760 4900 c0 -80 58 -142 168 -179 58 -20 66 -20 112 -7 116 34 180
101 180 185 l0 41 -230 0 -230 0 0 -40z"/>
<path d="M900 4704 c-34 -15 -90 -15 -136 0 -16 6 -23 2 -32 -18 l-12 -26 220
0 c121 0 220 2 220 5 0 2 -5 15 -11 28 -10 23 -13 24 -38 11 -34 -18 -78 -18
-131 1 -23 8 -43 15 -44 15 0 -1 -17 -8 -36 -16z"/>
<path d="M710 4600 c0 -80 58 -142 168 -179 58 -20 66 -20 112 -7 116 34 180
101 180 185 l0 41 -230 0 -230 0 0 -40z"/>
<path d="M15930 2431 l0 -91 29 0 c53 0 81 16 81 48 0 15 -5 33 -11 39 -8 8
-7 17 3 32 21 33 0 55 -56 59 l-46 3 0 -90z"/>
<path d="M9623 2423 c-27 -4 -33 -9 -33 -28 0 -48 18 -75 49 -75 18 0 31 6 35
17 5 12 9 14 18 5 33 -33 72 3 62 57 -6 30 -9 31 -53 29 -25 0 -61 -3 -78 -5z"/>
<path d="M24960 1810 l0 -70 -70 0 -70 0 0 -40 0 -40 70 0 70 0 0 -70 0 -70
40 0 40 0 0 70 0 70 70 0 70 0 0 40 0 40 -70 0 -70 0 0 70 0 70 -40 0 -40 0 0
-70z"/>
<path d="M24820 880 l0 -40 180 0 180 0 0 40 0 40 -180 0 -180 0 0 -40z"/>
<path d="M486 314 c-58 -59 -18 -154 64 -154 31 0 47 6 65 26 55 59 15 154
-65 154 -27 0 -45 -7 -64 -26z"/>
<path d="M1215 315 c-35 -34 -35 -96 0 -130 28 -29 88 -34 119 -10 27 20 8 42
-22 26 -29 -15 -57 -14 -72 4 -11 13 -4 19 49 42 33 14 61 32 61 38 0 6 -10
21 -23 33 -32 30 -81 29 -112 -3z"/>
<path d="M20896 198 c-23 -32 -20 -71 7 -96 30 -29 62 -28 92 3 30 30 31 54 4
89 -27 34 -81 36 -103 4z"/>
</g>
</svg>
